<?xml version="1.0" encoding="utf-8"?>
<!-- Generator: Adobe Illustrator 16.0.0, SVG Export Plug-In . SVG Version: 6.00 Build 0)  -->
<!DOCTYPE svg PUBLIC "-//W3C//DTD SVG 1.1//EN" "http://www.w3.org/Graphics/SVG/1.1/DTD/svg11.dtd">
<svg version="1.1" id="Layer_1" xmlns="http://www.w3.org/2000/svg" xmlns:xlink="http://www.w3.org/1999/xlink" x="0px" y="0px"
	 width="24px" height="17.315px" viewBox="0 0 24 17.315" enable-background="new 0 0 24 17.315" xml:space="preserve">
<path fill-rule="evenodd" clip-rule="evenodd" fill="#FFFFFF" d="M23.987,1.976c-8.001,0-15.977,0-23.977,0c0-0.655,0-1.305,0-1.976
	c7.984,0,15.974,0,23.977,0C23.987,0.658,23.987,1.315,23.987,1.976z"/>
<path fill-rule="evenodd" clip-rule="evenodd" fill="#FFFFFF" d="M0,9.636C0,8.971,0,8.328,0,7.67c7.998,0,15.98,0,23.988,0
	c0,0.643,0,1.293,0,1.965C16.005,9.636,8.015,9.636,0,9.636z"/>
<path fill-rule="evenodd" clip-rule="evenodd" fill="#FFFFFF" d="M24,15.353c0,0.662,0,1.304,0,1.963c-8.004,0-15.994,0-24,0
	c0-0.656,0-1.298,0-1.963C7.992,15.353,15.982,15.353,24,15.353z"/>
</svg>
